#!OML:ASF H:\Terrain\Patient Classification 1\Terrain2\Thursday\justin.ASF
:FULLY-SPECIFIED
:DEGREES
1168
root 9.23383 23.378 7.69644 -367.343 -9.45085 -7.44259
lowerback 7.32724 1.78327 4.39669
upperback 3.76696 2.67577 4.06563
thorax -0.201826 1.35413 1.53308
lowerneck -8.76278 -0.819882 -8.73291
upperneck 42.5819 -1.05963 4.99865
head 17.0878 -1.20668 3.69952
rclavicle -2.48481e-015 1.94809e-014
rhumerus -36.9396 -22.0416 -71.0853
rradius 24.8451
rwrist -4.72455
rhand -19.5716 14.4796
rfingers 7.12502
rthumb 6.75334 -15.3927
lclavicle -2.48481e-015 1.94809e-014
lhumerus -45.5067 21.0742 73.2456
lradius 19.0808
lwrist -10.8497
lhand -15.3969 21.5273
lfingers 7.12502
lthumb 10.782 51.2306
rfemur 16.5808 -1.40818 19.9071
rtibia 68.6967
rfoot -5.22227 15.1035
rtoes -8.16677
lfemur -18.3002 7.91312 -11.5526
ltibia 40.8215
lfoot -9.55412 -6.56414
ltoes -6.36569
1169
root 9.24852 23.3875 7.80933 -367.386 -9.52892 -7.29582
lowerback 7.46878 1.85131 4.34005
upperback 4.04559 2.75441 3.96366
thorax 0.0111271 1.398 1.4557
lowerneck -8.76214 -0.78873 -8.95748
upperneck 42.6025 -1.06861 5.29725
head 17.103 -1.20762 3.87938
rclavicle -1.64494e-014 -1.19271e-014
rhumerus -36.4114 -22.7417 -71.101
rradius 24.1755
rwrist -4.10935
rhand -19.7815 14.4672
rfingers 7.12502
rthumb 6.55071 -15.4114
lclavicle -1.64494e-014 -1.19271e-014
lhumerus -44.529 20.6417 74.0388
lradius 19.8822
lwrist -9.16049
lhand -14.8272 23.0063
lfingers 7.12502
lthumb 11.3314 52.6802
rfemur 15.5144 -0.863533 19.8804
rtibia 70.3692
rfoot -1.72843 14.6835
rtoes -3.76654
lfemur -17.9135 8.09717 -11.7694
ltibia 40.986
lfoot -9.19047 -6.70359
ltoes -2.05296
1170
root 9.25716 23.4006 7.91204 -367.329 -9.525 -7.56187
lowerback 7.60521 1.93672 4.73162
upperback 4.29082 2.88643 3.92377
thorax 0.214098 1.47464 1.18972
lowerneck -8.7901 -0.795592 -8.8806
upperneck 42.631 -1.13199 5.40531
head 17.1319 -1.20589 3.90835
rclavicle -2.21396e-014 -1.35174e-014
rhumerus -35.9402 -23.1624 -71.4083
rradius 23.9037
rwrist -4.36821
rhand -20.0978 13.689
rfingers 7.12502
rthumb 6.24545 -16.1989
lclavicle -2.21396e-014 -1.35174e-014
lhumerus -43.3594 19.4369 75.226
lradius 20.7972
lwrist -7.01696
lhand -16.0735 22.3772
lfingers 7.12502
lthumb 10.1292 52.1134
rfemur 14.2288 -0.657956 20.3623
rtibia 72.0586
rfoot 0.6194 14.0517
rtoes -6.37114
lfemur -17.536 8.24423 -11.4911
ltibia 40.9962
lfoot -10.1368 -7.00808
ltoes -3.49133
1171
root 9.262 23.4063 8.0073 -367.166 -9.42659 -7.91036
lowerback 7.65425 1.97061 5.13869
upperback 4.4878 2.94763 3.92312
thorax 0.415278 1.51676 0.963421
lowerneck -8.85795 -0.759524 -8.6664
upperneck 42.6904 -1.08333 5.32151
head 17.1745 -1.16127 3.84246
rclavicle 4.10242e-014 3.06128e-014
rhumerus -35.4837 -23.5137 -71.7045
rradius 23.8098
rwrist -4.5263
rhand -20.176 13.3243
rfingers 7.12502
rthumb 6.16993 -16.5659
lclavicle 4.10242e-014 3.06128e-014
lhumerus -42.3003 18.3083 76.2685
lradius 21.671
lwrist -5.22426
lhand -16.7125 21.7654
lfingers 7.12502
lthumb 9.51271 51.5307
rfemur 12.9192 -0.777395 20.7888
rtibia 73.7138
rfoot 2.97994 13.4225
rtoes -8.40088
lfemur -17.256 8.31641 -11.1277
ltibia 40.8647
lfoot -10.1008 -7.5862
ltoes -0.554275
1172
root 9.26769 23.4187 8.09863 -367.102 -9.35522 -8.16244
lowerback 7.95875 1.98203 5.45139
upperback 4.55195 3.00248 3.88187
thorax 0.33522 1.54906 0.733786
lowerneck -8.51363 -0.697248 -8.54642
upperneck 42.5961 -1.0457 5.322
head 17.0237 -1.12342 3.81687
rclavicle -1.87355e-014 -1.23246e-014
rhumerus -35.3211 -23.7694 -71.8719
rradius 23.7423
rwrist -4.09278
rhand -19.7507 13.4688
rfingers 7.12502
rthumb 6.58052 -16.409
lclavicle -1.87355e-014 -1.23246e-014
lhumerus -41.6609 17.3698 76.9852
lradius 22.7008
lwrist -3.67753
lhand -16.7675 21.8434
lfingers 7.12502
lthumb 9.45964 51.6111
rfemur 11.8019 -0.922795 21.0605
rtibia 75.3173
rfoot 5.57877 12.0332
rtoes -4.20794
lfemur -16.8383 8.14373 -10.8865
ltibia 40.5779
lfoot -9.97237 -7.87945
ltoes 3.16358
1173
root 9.27164 23.4487 8.1836 -367.056 -9.20413 -7.90485
lowerback 8.2756 1.98367 5.21911
upperback 4.57904 3.01185 3.70341
thorax 0.185043 1.54937 0.665058
lowerneck -8.26653 -0.632785 -8.36558
upperneck 42.5842 -0.968636 5.21389
head 16.9417 -1.07659 3.74144
rclavicle -2.76808e-014 -3.69739e-014
rhumerus -34.9711 -23.1745 -72.5661
rradius 23.8151
rwrist -4.66648
rhand -19.7921 13.407
rfingers 7.12502
rthumb 6.54055 -16.472
lclavicle -2.76808e-014 -3.69739e-014
lhumerus -41.1966 16.3029 77.7531
lradius 24.0734
lwrist -1.89974
lhand -17.5005 21.6905
lfingers 7.12502
lthumb 8.75241 51.489
rfemur 10.4217 -1.19496 20.7072
rtibia 77.0634
rfoot 7.3645 10.7127
rtoes -1.57328
lfemur -16.3823 7.78141 -11.2602
ltibia 40.0909
lfoot -10.1131 -7.59171
ltoes 4.28394
